<?xml version="1.0"?>
<svg xmlns="http://www.w3.org/2000/svg" viewBox="0 0 64 64" width="512" height="512"><g id="_29-weightlifting" data-name="29-weightlifting"><path d="M25,25v1H24a1.862,1.862,0,0,0-2,1.67V24a10,10,0,0,1,20,0v3.67A1.862,1.862,0,0,0,40,26H39V25c-1.66,0-3-1-4-3C33,24,31.08,25,25,25Z" style="fill:#333940"/><polygon points="6 1 6 17 3 17 3 9 3 1 6 1" style="fill:#2b8ffc"/><polygon points="61 9 61 17 58 17 58 1 61 1 61 9" style="fill:#2b8ffc"/><polygon points="9 9 9 17 6 17 6 1 9 1 9 9" style="fill:#7f52ff"/><polygon points="58 1 58 17 55 17 55 9 55 1 58 1" style="fill:#7f52ff"/><path d="M20,7l.09.03A1.267,1.267,0,0,0,20,7.5V9H13V5a2.006,2.006,0,0,1,2-2h3a2.006,2.006,0,0,1,2,2Z" style="fill:#faa592"/><path d="M51,5V9H44V7.5a1.267,1.267,0,0,0-.09-.47L44,7V5a2.006,2.006,0,0,1,2-2h3A2.006,2.006,0,0,1,51,5Z" style="fill:#faa592"/><path d="M44.39,57.09,43,63H21l-1.39-5.91L20,57c4,0,4-6,4-6V46l2-8,3,2v1a3,3,0,0,0,6,0V40l3-2,2,8v5s0,6,4,6Z" style="fill:#2b8ffc"/><path d="M25,30.7a1.514,1.514,0,0,0,.02.3H25a2.783,2.783,0,0,1-3-2.5v-.83A1.862,1.862,0,0,1,24,26h1Z" style="fill:#faa592"/><path d="M42,28v.5A2.783,2.783,0,0,1,39,31h-.02a1.514,1.514,0,0,0,.02-.3V26h1a1.862,1.862,0,0,1,2,1.67Z" style="fill:#faa592"/><path d="M35,40v1a3,3,0,0,1-6,0V37.29a6.693,6.693,0,0,0,6,0Z" style="fill:#e68d79"/><path d="M35,37.29a6.693,6.693,0,0,1-6,0A7.255,7.255,0,0,1,25.02,31a1.514,1.514,0,0,1-.02-.3V25c6.08,0,8-1,10-3,1,2,2.34,3,4,3v5.7a1.514,1.514,0,0,1-.02.3,7.292,7.292,0,0,1-2.03,4.86A6.683,6.683,0,0,1,35,37.29Z" style="fill:#faa592"/><path d="M38,38l6-4c-1,1-4,5.37-4,12Z" style="fill:#ba7b72"/><path d="M26,38l-2,8c0-6.63-3-11-4-12Z" style="fill:#ba7b72"/><path d="M52,25v1.97A74.085,74.085,0,0,1,51.56,35a20.7,20.7,0,0,1-3.35,9.18L47,46,44.39,57.09,44,57c-4,0-4-6-4-6V46c0-6.63,3-11,4-12l2-9L45,14l-4-3V7.5A1.5,1.5,0,0,1,42.5,6a1.459,1.459,0,0,1,1.41,1.03A1.267,1.267,0,0,1,44,7.5V9h7Z" style="fill:#faa592"/><path d="M24,46v5s0,6-4,6l-.39.09L17,46l-1.21-1.82A20.7,20.7,0,0,1,12.44,35,74.085,74.085,0,0,1,12,26.97V25L13,9h7V7.5a1.267,1.267,0,0,1,.09-.47A1.459,1.459,0,0,1,21.5,6,1.5,1.5,0,0,1,23,7.5V11l-4,3L18,25l2,9C21,35,24,39.37,24,46Z" style="fill:#faa592"/><path d="M51.328,14.254,51,9H44V7.5a1.267,1.267,0,0,0-.09-.47A1.459,1.459,0,0,0,42.5,6,1.5,1.5,0,0,0,41,7.5V11l4,3,4,2Z" style="fill:#f29b87"/><path d="M19,14l4-3V7.5A1.5,1.5,0,0,0,21.5,6a1.459,1.459,0,0,0-1.41,1.03A1.267,1.267,0,0,0,20,7.5V9H13l-.328,5.254L15,16Z" style="fill:#f29b87"/><path d="M40,24H39V23c-1.66,0-3-2-4-4-2,2-3.92,4-10,4v1H24a1.862,1.862,0,0,0-2,1.67v2A1.862,1.862,0,0,1,24,26h1V25c6.08,0,8-1,10-3,1,2,2.34,3,4,3v1h1a1.862,1.862,0,0,1,2,1.67v-2A1.862,1.862,0,0,0,40,24Z" style="fill:#2a2e33"/><path d="M32,14A10,10,0,0,0,22,24v2a10,10,0,0,1,20,0V24A10,10,0,0,0,32,14Z" style="fill:#414952"/><path d="M41,29v-.664C41,27.6,40.1,27,39,27v3.7c0,.06-.008.12-.012.18C40.158,30.607,41,29.872,41,29Z" style="fill:#e68d79"/><path d="M23,29v-.664C23,27.6,23.9,27,25,27v3.7c0,.06.008.12.012.18C23.842,30.607,23,29.872,23,29Z" style="fill:#e68d79"/><path d="M20,34l-2-9,1-11-4,2v3c0,.7.005,1.382.013,2.062a126.583,126.583,0,0,0,.858,14.143,2,2,0,0,0,3.912.256l.357-1.309C20.092,34.1,20.042,34.042,20,34Z" style="fill:#f29b87"/><path d="M18.74,16l.084-.059L19,14l-4,2-2.328-1.746-.148,2.368,1.006.709a2,2,0,0,0,2,.175Z" style="fill:#e68d79"/><path d="M45,14l1,11-2,9c-.042.042-.092.1-.14.152l.383,1.405a2,2,0,0,0,3.913-.255A120.539,120.539,0,0,0,49,20.91q0-.453,0-.91h0a6.472,6.472,0,0,0-3.578-5.789Z" style="fill:#f29b87"/><path d="M48,42c-.379,0,.3-.1,0,0h0a2.617,2.617,0,0,1-2.526-1.93L43.86,34.152A18.69,18.69,0,0,0,40,46v5s.009,5.033,3.094,5.87A3.386,3.386,0,0,0,44,57l.39.09L47,46l1.21-1.82A20.716,20.716,0,0,0,49.478,42Z" style="fill:#e68d79"/><path d="M48,42H47c-2.211,0-3,1.789-3,4l1,5.011-.6-2.985a6.859,6.859,0,0,1-1.921,2.667c-.993-2.909-1.309-7.156-1.453-11.215A20.822,20.822,0,0,0,40,46v5s.009,5.033,3.094,5.87A3.386,3.386,0,0,0,44,57l.39.09.823-3.5.165-.7h0L47,46l1.21-1.82A20.716,20.716,0,0,0,49.478,42Z" style="fill:#d47c69"/><path d="M51,9H44V7.5a1.267,1.267,0,0,0-.09-.47A1.444,1.444,0,0,0,43,6.088V9a2,2,0,0,0,2,2h3a2,2,0,0,1,2,2v2.25l1.328-1Z" style="fill:#e68d79"/><path d="M49,3H46a2,2,0,0,0-1.721,1H49a1,1,0,0,1,1,1V7a1,1,0,0,0,1,1V5A2.006,2.006,0,0,0,49,3Z" style="fill:#ffbeaa"/><path d="M50.945,17l.531-.375-.148-2.368L49,16l-4-2,.176,1.941L45.26,16l2.683,1.259A3,3,0,0,0,50.945,17Z" style="fill:#e68d79"/><path d="M32,38a6.6,6.6,0,0,1-3-.71V41a2.982,2.982,0,0,0,1,2.224v-2.5a1,1,0,0,1,1.288-.951A5.149,5.149,0,0,0,35,39V37.29A6.6,6.6,0,0,1,32,38Z" style="fill:#d47c69"/><path d="M16,42c.379,0-.3-.1,0,0h0a2.617,2.617,0,0,0,2.526-1.93l1.614-5.918A18.69,18.69,0,0,1,24,46v5s-.009,5.033-3.094,5.87A3.386,3.386,0,0,1,20,57l-.39.09L17,46l-1.21-1.82A20.716,20.716,0,0,1,14.522,42Z" style="fill:#e68d79"/><path d="M23.03,39.66c.071,1.934.148,7.7-1.217,11.317-1.08-.139-1.849-1.43-2.306-2.51L20,46c0-2.211-.789-4-3-4H14.522a20.716,20.716,0,0,0,1.268,2.18L17,46l1.622,6.891h0l.264,1.121.724,3.078L20,57a3.386,3.386,0,0,0,.906-.13C23.991,56.033,24,51,24,51V46A20.878,20.878,0,0,0,23.03,39.66Z" style="fill:#d47c69"/><path d="M13,9h7V7.5a1.267,1.267,0,0,1,.09-.47A1.444,1.444,0,0,1,21,6.088V9a2,2,0,0,1-2,2H16a2,2,0,0,0-2,2v2.25l-1.328-1Z" style="fill:#e68d79"/><path d="M15,3h3a2,2,0,0,1,1.721,1H15a1,1,0,0,0-1,1V7a1,1,0,0,1-1,1V5A2.006,2.006,0,0,1,15,3Z" style="fill:#ffbeaa"/><path d="M35,22c-1.764,1.764-3.469,2.749-8.016,2.957-.3.014-.615.025-.942.032S25.362,25,25,25v5.7a1.514,1.514,0,0,0,.02.3A7.255,7.255,0,0,0,29,37.29,6.6,6.6,0,0,0,32,38a6.848,6.848,0,0,0,1-.082,6.592,6.592,0,0,1-2-.628A7.255,7.255,0,0,1,27.02,31a1.514,1.514,0,0,1-.02-.3V28.8a2,2,0,0,1,1.764-1.983A9.08,9.08,0,0,0,35,24c1,2,2.34,3,4,3V25C37.34,25,36,24,35,22Z" style="fill:#e68d79"/><path d="M37,30.7a1.514,1.514,0,0,1-.02.3,7.292,7.292,0,0,1-2.03,4.86A6.683,6.683,0,0,1,33,37.29a6.592,6.592,0,0,1-2,.628A6.848,6.848,0,0,0,32,38a6.6,6.6,0,0,0,3-.71,6.683,6.683,0,0,0,1.95-1.43A7.292,7.292,0,0,0,38.98,31a1.514,1.514,0,0,0,.02-.3V27a3.636,3.636,0,0,1-2-.593Z" style="fill:#ffb8a8"/><path d="M58.438,13H58v4h3V9l-.621,2.485A2,2,0,0,1,58.438,13Z" style="fill:#2357d1"/><path d="M57.562,13a2,2,0,0,1-1.941-1.515L55,9v8h3V13Z" style="fill:#5931c2"/><path d="M6.438,13H6v4H9V9l-.621,2.485A2,2,0,0,1,6.438,13Z" style="fill:#5931c2"/><path d="M5.562,13a2,2,0,0,1-1.941-1.515L3,9v8H6V13Z" style="fill:#2357d1"/><path d="M38,38l-3,2v1a2.968,2.968,0,0,1-.627,1.813l4.294-2.146Z" style="fill:#2cb5ff"/><path d="M20,57l-.39.09L21,63h2.818l-1.3-7.173A3.155,3.155,0,0,1,20,57Z" style="fill:#2864f0"/><path d="M29,41V40l-3-2-.667,2.667L29.62,42.81A2.972,2.972,0,0,1,29,41Z" style="fill:#2cb5ff"/><path d="M44.39,57.09,44,57a3.155,3.155,0,0,1-2.514-1.173L40.182,63H43Z" style="fill:#2864f0"/><ellipse cx="59.427" cy="3.208" rx="0.413" ry="0.574" transform="translate(15.151 42.976) rotate(-45.02)" style="fill:#f6fafd"/><ellipse cx="4.427" cy="3.208" rx="0.413" ry="0.574" transform="translate(-0.972 4.072) rotate(-45.02)" style="fill:#f6fafd"/><path d="M63,8H62V1a1,1,0,0,0-1-1H55a1,1,0,0,0-1,1V8H52V5a3,3,0,0,0-3-3H46a3,3,0,0,0-3,3v.051A2.5,2.5,0,0,0,40,7.5V8H24V7.5a2.5,2.5,0,0,0-3-2.449V5a3,3,0,0,0-3-3H15a3,3,0,0,0-3,3V8H10V1A1,1,0,0,0,9,0H3A1,1,0,0,0,2,1V8H1v2H2v7a1,1,0,0,0,1,1H9a1,1,0,0,0,1-1V10H20a1,1,0,0,0,1-1V7.5a.5.5,0,0,1,1,0v3l-3.6,2.7a1,1,0,0,0-.4.709l-1,11a1.026,1.026,0,0,0,.019.308l2,9a.989.989,0,0,0,.283.477l-.013.013C20.255,35.669,23,39.808,23,46v2h2V46.123l1.626-6.5L28,40.535V41a4,4,0,0,0,8,0v-.465l1.374-.916L39,46.123V48h2V46c0-6.192,2.745-10.331,3.707-11.293l-.013-.013a.989.989,0,0,0,.283-.477l2-9A1.026,1.026,0,0,0,47,24.909l-1-11a1,1,0,0,0-.4-.709L42,10.5v-3a.5.5,0,0,1,1,0V9a1,1,0,0,0,1,1H54v7a1,1,0,0,0,1,1h6a1,1,0,0,0,1-1V10h1ZM8,16H7V6H5V16H4V2H5V4H7V2H8ZM19,8H14V5a1,1,0,0,1,1-1h3a1,1,0,0,1,1,1V7h.051A2.5,2.5,0,0,0,19,7.5Zm5.327,32.571a20.768,20.768,0,0,0-1.093-3.213l1.625,1.083ZM24,29.785A1.5,1.5,0,0,1,23,28.5v-.833c0-.315.411-.667,1-.667ZM24,25a3.284,3.284,0,0,0-1,.164V24a9,9,0,0,1,18,0v1.164A3.284,3.284,0,0,0,40,25a1,1,0,0,0-1-1c-1.267,0-2.282-.8-3.1-2.447a1,1,0,0,0-.735-.54.983.983,0,0,0-.867.28C32.657,22.928,31.127,24,25,24A1,1,0,0,0,24,25Zm16,2c.589,0,1,.352,1,.667V28.5a1.5,1.5,0,0,1-1,1.285ZM26,25.99c4.726-.094,6.917-.881,8.767-2.418A5.258,5.258,0,0,0,38,25.9v4.8A6.165,6.165,0,0,1,32,37a6.165,6.165,0,0,1-6-6.3ZM32,43a2,2,0,0,1-2-2V38.727a7.463,7.463,0,0,0,4,0V41A2,2,0,0,1,32,43Zm7.141-4.559,1.625-1.083a20.768,20.768,0,0,0-1.093,3.213Zm4.9-23.908.946,10.4-1.879,8.455L36,38.132v-.256A8.323,8.323,0,0,0,39.906,31.9,3.638,3.638,0,0,0,43,28.5V24a11,11,0,0,0-22,0v4.5a3.638,3.638,0,0,0,3.094,3.4A8.323,8.323,0,0,0,28,37.876v.256l-7.111-4.741L19.01,24.936l.946-10.4L23.6,11.8A1,1,0,0,0,24,11V10H40v1a1,1,0,0,0,.4.8ZM44.949,7H45V5a1,1,0,0,1,1-1h3a1,1,0,0,1,1,1V8H45V7.5A2.5,2.5,0,0,0,44.949,7ZM60,16H59V14H57v2H56V2h1V12h2V2h1Z"/><path d="M52.186,11.938l-2,.124L51,25v1.975a71.986,71.986,0,0,1-.438,7.916,19.755,19.755,0,0,1-3.184,8.739l-1.21,1.815a1.03,1.03,0,0,0-.142.326l-2.4,10.189C41.052,55.557,41,51.047,41,51V50H39v1c0,2.24.9,6.322,4.168,6.919L42.208,62H21.792l-.96-4.081C24.1,57.322,25,53.24,25,51V50H23v1c0,.049-.052,4.559-2.629,4.962l-2.4-10.189a1.03,1.03,0,0,0-.142-.326l-1.21-1.815a19.755,19.755,0,0,1-3.184-8.739A71.986,71.986,0,0,1,13,26.975l0-1.913.813-13-2-.124L11,25v1.975a73.985,73.985,0,0,0,.45,8.136,21.776,21.776,0,0,0,3.508,9.628l1.11,1.665,3.958,16.825A1,1,0,0,0,21,64H43a1,1,0,0,0,.974-.771L47.932,46.4l1.11-1.665a21.776,21.776,0,0,0,3.508-9.628A73.985,73.985,0,0,0,53,26.975l0-2.037Z"/><path d="M47,43V41c-2.505,0-4,1.869-4,5h2C45,43,46.505,43,47,43Z"/><path d="M19,46h2c0-3.131-1.5-5-4-5v2C17.5,43,19,43,19,46Z"/></g></svg>
